<svg width="56" height="56" viewBox="0 0 56 56" fill="none" xmlns="http://www.w3.org/2000/svg">
<rect width="56" height="56" rx="8" fill="#7381FF"/>
<path fill-rule="evenodd" clip-rule="evenodd" d="M20.8985 45.1641C23.8048 46.8516 27.1095 47.6953 30.8126 47.6953C32.6251 47.6953 34.4532 47.4688 36.297 47.0156H51.2267V38.5781H47.4298L47.336 38.625C49.1173 35.5781 50.0079 32.1328 50.0079 28.2891C50.0079 24.4609 49.2267 21.0938 47.6642 18.1875C46.1173 15.2656 43.8985 13 41.0079 11.3906C38.1329 9.79688 34.7345 9 30.8126 9C26.9063 9 23.5079 9.80469 20.6173 11.4141C17.7423 13.0078 15.5157 15.2578 13.9376 18.1641C12.6807 20.5037 11.9243 23.1209 11.6685 26.0156H25.7072C25.7939 24.8427 25.9567 23.749 26.1954 22.7344C26.586 21.125 27.1642 19.8516 27.9298 18.9141C28.711 17.9609 29.672 17.4844 30.8126 17.4844C31.9532 17.4844 32.8985 17.9609 33.6485 18.9141C34.4142 19.8516 34.9845 21.125 35.3595 22.7344C35.7501 24.3281 35.9454 26.1172 35.9454 28.1016C35.9454 30.1953 35.7423 32.1172 35.336 33.8672C34.9454 35.6016 34.3673 36.9922 33.6017 38.0391C32.836 39.0703 31.9063 39.5859 30.8126 39.5859C30.1485 39.5859 29.542 39.3958 28.9931 39.0156H14.4863C16.098 41.5908 18.2354 43.6403 20.8985 45.1641Z" fill="white"/>
<path d="M9.434 37.078C8.74933 37.078 8.11667 36.9653 7.536 36.74C6.95533 36.506 6.45267 36.181 6.028 35.765C5.60333 35.349 5.26967 34.8593 5.027 34.296C4.793 33.7327 4.676 33.1173 4.676 32.45C4.676 31.7827 4.793 31.1673 5.027 30.604C5.26967 30.0407 5.60333 29.551 6.028 29.135C6.46133 28.719 6.96833 28.3983 7.549 28.173C8.12967 27.939 8.76233 27.822 9.447 27.822C10.1057 27.822 10.7253 27.9347 11.306 28.16C11.8867 28.3767 12.3763 28.706 12.775 29.148L12.164 29.759C11.7913 29.3777 11.3797 29.1047 10.929 28.94C10.4783 28.7667 9.993 28.68 9.473 28.68C8.927 28.68 8.42 28.7753 7.952 28.966C7.484 29.148 7.07667 29.4123 6.73 29.759C6.38333 30.097 6.11033 30.4957 5.911 30.955C5.72033 31.4057 5.625 31.904 5.625 32.45C5.625 32.996 5.72033 33.4987 5.911 33.958C6.11033 34.4087 6.38333 34.8073 6.73 35.154C7.07667 35.492 7.484 35.7563 7.952 35.947C8.42 36.129 8.927 36.22 9.473 36.22C9.993 36.22 10.4783 36.1333 10.929 35.96C11.3797 35.7867 11.7913 35.5093 12.164 35.128L12.775 35.739C12.3763 36.181 11.8867 36.5147 11.306 36.74C10.7253 36.9653 10.1013 37.078 9.434 37.078ZM17.2232 37.065C16.6426 37.065 16.1356 36.9567 15.7022 36.74C15.2689 36.5233 14.9309 36.1983 14.6882 35.765C14.4542 35.3317 14.3372 34.79 14.3372 34.14V30.175H15.2602V34.036C15.2602 34.764 15.4379 35.3143 15.7932 35.687C16.1572 36.051 16.6642 36.233 17.3142 36.233C17.7909 36.233 18.2026 36.1377 18.5492 35.947C18.9046 35.7477 19.1732 35.4617 19.3552 35.089C19.5459 34.7163 19.6412 34.27 19.6412 33.75V30.175H20.5642V37H19.6802V35.128L19.8232 35.466C19.6066 35.9687 19.2686 36.363 18.8092 36.649C18.3586 36.9263 17.8299 37.065 17.2232 37.065ZM24.9696 37.065C24.4063 37.065 23.8733 36.987 23.3706 36.831C22.8679 36.6663 22.4736 36.4627 22.1876 36.22L22.6036 35.492C22.8809 35.7 23.2363 35.882 23.6696 36.038C24.1029 36.1853 24.5579 36.259 25.0346 36.259C25.6846 36.259 26.1526 36.1593 26.4386 35.96C26.7246 35.752 26.8676 35.479 26.8676 35.141C26.8676 34.8897 26.7853 34.6947 26.6206 34.556C26.4646 34.4087 26.2566 34.3003 25.9966 34.231C25.7366 34.153 25.4463 34.088 25.1256 34.036C24.8049 33.984 24.4843 33.9233 24.1636 33.854C23.8516 33.7847 23.5656 33.685 23.3056 33.555C23.0456 33.4163 22.8333 33.23 22.6686 32.996C22.5126 32.762 22.4346 32.45 22.4346 32.06C22.4346 31.6873 22.5386 31.3537 22.7466 31.059C22.9546 30.7643 23.2579 30.5347 23.6566 30.37C24.0639 30.1967 24.5579 30.11 25.1386 30.11C25.5806 30.11 26.0226 30.1707 26.4646 30.292C26.9066 30.4047 27.2706 30.5563 27.5566 30.747L27.1536 31.488C26.8503 31.28 26.5253 31.1327 26.1786 31.046C25.8319 30.9507 25.4853 30.903 25.1386 30.903C24.5233 30.903 24.0683 31.0113 23.7736 31.228C23.4876 31.436 23.3446 31.7047 23.3446 32.034C23.3446 32.294 23.4226 32.4977 23.5786 32.645C23.7433 32.7923 23.9556 32.9093 24.2156 32.996C24.4843 33.074 24.7746 33.139 25.0866 33.191C25.4073 33.243 25.7236 33.308 26.0356 33.386C26.3563 33.4553 26.6466 33.555 26.9066 33.685C27.1753 33.8063 27.3876 33.984 27.5436 34.218C27.7083 34.4433 27.7906 34.7423 27.7906 35.115C27.7906 35.5137 27.6779 35.8603 27.4526 36.155C27.2359 36.441 26.9153 36.6663 26.4906 36.831C26.0746 36.987 25.5676 37.065 24.9696 37.065ZM31.6423 37.065C31.0009 37.065 30.5069 36.8917 30.1603 36.545C29.8136 36.1983 29.6403 35.7087 29.6403 35.076V28.667H30.5633V35.024C30.5633 35.4227 30.6629 35.7303 30.8623 35.947C31.0703 36.1637 31.3649 36.272 31.7463 36.272C32.1536 36.272 32.4916 36.155 32.7603 35.921L33.0853 36.584C32.9033 36.7487 32.6823 36.87 32.4223 36.948C32.1709 37.026 31.9109 37.065 31.6423 37.065ZM28.4183 30.942V30.175H32.6433V30.942H28.4183Z" fill="#EAECFF"/>
</svg>
