<svg width="22" height="24" viewBox="0 0 22 24" fill="none" xmlns="http://www.w3.org/2000/svg">
<path d="M9.92479 19.9V4.1C9.92479 2.6 9.34734 2 7.91276 2H4.26765C2.83306 2 2.25562 2.6 2.25562 4.1V19.9C2.25562 21.4 2.83306 22 4.26765 22H7.91276C9.34734 22 9.92479 21.4 9.92479 19.9Z" fill="#414141"/>
<path d="M9.92479 19.9V4.1C9.92479 2.6 9.34734 2 7.91276 2H4.26765C2.83306 2 2.25562 2.6 2.25562 4.1V19.9C2.25562 21.4 2.83306 22 4.26765 22H7.91276C9.34734 22 9.92479 21.4 9.92479 19.9Z" fill="black" fill-opacity="0.2"/>
<path d="M19.3984 19.64V15.36C19.3984 14.06 18.4962 13 17.3864 13H13.7413C12.6315 13 11.7292 14.06 11.7292 15.36V19.64C11.7292 20.94 12.6315 22 13.7413 22H17.3864C18.4962 22 19.3984 20.94 19.3984 19.64Z" fill="#414141"/>
<path d="M19.3984 19.64V15.36C19.3984 14.06 18.4962 13 17.3864 13H13.7413C12.6315 13 11.7292 14.06 11.7292 15.36V19.64C11.7292 20.94 12.6315 22 13.7413 22H17.3864C18.4962 22 19.3984 20.94 19.3984 19.64Z" fill="black" fill-opacity="0.2"/>
<path d="M19.3984 8.64V4.36C19.3984 3.06 18.4962 2 17.3864 2H13.7413C12.6315 2 11.7292 3.06 11.7292 4.36V8.64C11.7292 9.94 12.6315 11 13.7413 11H17.3864C18.4962 11 19.3984 9.94 19.3984 8.64Z" fill="#414141"/>
<path d="M19.3984 8.64V4.36C19.3984 3.06 18.4962 2 17.3864 2H13.7413C12.6315 2 11.7292 3.06 11.7292 4.36V8.64C11.7292 9.94 12.6315 11 13.7413 11H17.3864C18.4962 11 19.3984 9.94 19.3984 8.64Z" fill="black" fill-opacity="0.2"/>
</svg>
