<svg width="42" height="44" viewBox="0 0 42 44" fill="none" xmlns="http://www.w3.org/2000/svg">
<rect width="41.6541" height="44" rx="4" fill="#9FA9FF"/>
<path d="M19.9248 29.9V14.1C19.9248 12.6 19.3473 12 17.9128 12H14.2676C12.8331 12 12.2556 12.6 12.2556 14.1V29.9C12.2556 31.4 12.8331 32 14.2676 32H17.9128C19.3473 32 19.9248 31.4 19.9248 29.9Z" fill="#2E43FF"/>
<path d="M29.3984 29.64V25.36C29.3984 24.06 28.4962 23 27.3864 23H23.7413C22.6315 23 21.7292 24.06 21.7292 25.36V29.64C21.7292 30.94 22.6315 32 23.7413 32H27.3864C28.4962 32 29.3984 30.94 29.3984 29.64Z" fill="#2E43FF"/>
<path d="M29.3984 18.64V14.36C29.3984 13.06 28.4962 12 27.3864 12H23.7413C22.6315 12 21.7292 13.06 21.7292 14.36V18.64C21.7292 19.94 22.6315 21 23.7413 21H27.3864C28.4962 21 29.3984 19.94 29.3984 18.64Z" fill="#2E43FF"/>
</svg>
