<svg width="319" height="312" viewBox="0 0 319 312" fill="none" xmlns="http://www.w3.org/2000/svg">
<g clip-path="url(#clip0_52_11035)">
<path d="M202.284 69.9493H116.425C114.469 69.9517 112.593 70.73 111.209 72.1135C109.826 73.497 109.048 75.3727 109.045 77.3293V268.151L108.061 268.451L86.9987 274.901C86.0005 275.206 84.9223 275.102 84.0008 274.612C83.0794 274.122 82.3899 273.286 82.0838 272.289L19.4325 67.6418C19.1276 66.6436 19.2315 65.5652 19.7214 64.6435C20.2113 63.7219 21.0471 63.0325 22.045 62.7268L54.5023 52.7884L148.597 23.9868L181.054 14.0484C181.548 13.8964 182.067 13.8433 182.582 13.8921C183.096 13.9409 183.596 14.0907 184.052 14.3329C184.509 14.5751 184.913 14.905 185.242 15.3036C185.571 15.7022 185.818 16.1618 185.969 16.656L201.984 68.9653L202.284 69.9493Z" fill="#F2F2F2"/>
<path d="M221.019 68.9654L201.718 5.92065C201.397 4.87021 200.872 3.89334 200.173 3.04586C199.474 2.19838 198.615 1.4969 197.645 0.981514C196.675 0.466125 195.613 0.146918 194.52 0.0421474C193.426 -0.0626231 192.323 0.0490954 191.273 0.370907L145.64 14.3388L51.55 43.1453L5.91707 57.1181C3.7972 57.769 2.02221 59.2344 0.981704 61.1927C-0.0588046 63.151 -0.279823 65.4421 0.367171 67.5632L66.3344 283.024C66.86 284.736 67.9205 286.235 69.3603 287.3C70.8001 288.366 72.5434 288.941 74.3344 288.943C75.1634 288.943 75.9876 288.819 76.7795 288.574L108.061 279L109.045 278.695V277.666L108.061 277.966L76.4893 287.634C74.6182 288.205 72.5972 288.01 70.8696 287.092C69.1421 286.174 67.8491 284.609 67.2742 282.739L1.31201 67.2729C1.02719 66.3464 0.927919 65.3729 1.01989 64.408C1.11185 63.4431 1.39324 62.5058 1.84796 61.6498C2.30267 60.7938 2.92178 60.036 3.66982 59.4196C4.41785 58.8032 5.28012 58.3404 6.20725 58.0578L51.8401 44.085L145.93 15.2834L191.563 1.31063C192.266 1.09602 192.997 0.986599 193.733 0.985913C195.31 0.989456 196.846 1.49816 198.114 2.43752C199.381 3.37688 200.315 4.69752 200.778 6.20602L219.991 68.9654L220.296 69.9494H221.319L221.019 68.9654Z" fill="#3F3D56"/>
<path d="M60.3588 62.8877C59.4105 62.887 58.4874 62.5825 57.7249 62.0187C56.9624 61.455 56.4007 60.6617 56.122 59.7553L49.7849 39.056C49.6146 38.5 49.5555 37.9159 49.611 37.3371C49.6665 36.7582 49.8355 36.1959 50.1083 35.6824C50.3811 35.1689 50.7524 34.7141 51.201 34.3441C51.6496 33.974 52.1667 33.696 52.7227 33.5259L139.285 7.02496C140.407 6.6823 141.62 6.79916 142.657 7.34991C143.694 7.90065 144.47 8.84027 144.815 9.96254L151.152 30.662C151.495 31.785 151.378 32.9979 150.827 34.0347C150.276 35.0715 149.337 35.8475 148.215 36.1925L61.6525 62.6934C61.2333 62.822 60.7973 62.8875 60.3588 62.8877Z" fill="#2E43FF"/>
<path d="M93.5548 22.1176C98.9893 22.1176 103.395 17.7121 103.395 12.2776C103.395 6.84313 98.9893 2.43762 93.5548 2.43762C88.1204 2.43762 83.7148 6.84313 83.7148 12.2776C83.7148 17.7121 88.1204 22.1176 93.5548 22.1176Z" fill="#2E43FF"/>
<path d="M93.5552 18.5086C96.9965 18.5086 99.7862 15.7189 99.7862 12.2777C99.7862 8.8364 96.9965 6.04669 93.5552 6.04669C90.1139 6.04669 87.3242 8.8364 87.3242 12.2777C87.3242 15.7189 90.1139 18.5086 93.5552 18.5086Z" fill="white"/>
<path d="M296.496 286.429H130.201C129.092 286.428 128.029 285.986 127.245 285.202C126.461 284.418 126.02 283.356 126.019 282.247V82.9873C126.02 81.8785 126.461 80.8155 127.245 80.0315C128.029 79.2475 129.092 78.8065 130.201 78.8053H296.496C297.605 78.8066 298.668 79.2476 299.452 80.0316C300.236 80.8156 300.677 81.8785 300.678 82.9873V282.247C300.677 283.356 300.236 284.418 299.452 285.202C298.668 285.986 297.605 286.427 296.496 286.429Z" fill="#E6E6E6"/>
<path d="M219.99 68.9653H116.425C114.207 68.9685 112.082 69.8507 110.514 71.4186C108.946 72.9864 108.064 75.112 108.061 77.3293V277.966L109.045 277.666V77.3293C109.047 75.3727 109.825 73.497 111.209 72.1135C112.592 70.73 114.468 69.9517 116.425 69.9493H220.295L219.99 68.9653ZM310.272 68.9653H116.425C114.207 68.9685 112.082 69.8507 110.514 71.4186C108.946 72.9864 108.064 75.112 108.061 77.3293V302.665C108.064 304.882 108.946 307.008 110.514 308.576C112.082 310.143 114.207 311.026 116.425 311.029H310.272C312.489 311.026 314.615 310.143 316.183 308.576C317.751 307.008 318.633 304.882 318.636 302.665V77.3293C318.633 75.112 317.751 72.9864 316.183 71.4186C314.615 69.8507 312.489 68.9685 310.272 68.9653ZM317.652 302.665C317.65 304.621 316.871 306.497 315.488 307.881C314.104 309.264 312.229 310.042 310.272 310.045H116.425C114.468 310.042 112.592 309.264 111.209 307.881C109.825 306.497 109.047 304.621 109.045 302.665V77.3293C109.047 75.3727 109.825 73.497 111.209 72.1135C112.592 70.73 114.468 69.9517 116.425 69.9493H310.272C312.229 69.9517 314.104 70.73 315.488 72.1135C316.871 73.497 317.65 75.3727 317.652 77.3293V302.665Z" fill="#3F3D56"/>
<path d="M258.613 90.6133H168.085C166.911 90.612 165.786 90.145 164.956 89.3149C164.125 88.4848 163.659 87.3593 163.657 86.1853V64.5374C163.659 63.3634 164.126 62.2379 164.956 61.4078C165.786 60.5776 166.911 60.1107 168.085 60.1094H258.613C259.787 60.1107 260.912 60.5776 261.743 61.4078C262.573 62.2379 263.04 63.3634 263.041 64.5374V86.1853C263.04 87.3593 262.573 88.4848 261.743 89.3149C260.912 90.145 259.787 90.612 258.613 90.6133Z" fill="#2E43FF"/>
<path d="M213.349 61.5853C218.783 61.5853 223.189 57.1798 223.189 51.7454C223.189 46.3109 218.783 41.9054 213.349 41.9054C207.914 41.9054 203.509 46.3109 203.509 51.7454C203.509 57.1798 207.914 61.5853 213.349 61.5853Z" fill="#2E43FF"/>
<path d="M213.349 57.7389C216.659 57.7389 219.342 55.0555 219.342 51.7454C219.342 48.4353 216.659 45.752 213.349 45.752C210.039 45.752 207.355 48.4353 207.355 51.7454C207.355 55.0555 210.039 57.7389 213.349 57.7389Z" fill="white"/>
</g>
<defs>
<clipPath id="clip0_52_11035">
<rect width="318.636" height="311.029" fill="white"/>
</clipPath>
</defs>
</svg>
