<svg width="240" height="230" viewBox="0 0 240 230" fill="none" xmlns="http://www.w3.org/2000/svg">
<path d="M216.7 69.499C210.3 47.799 192.2 29.699 170.5 23.299C154 18.499 142.6 18.899 134.7 24.799C125.2 31.899 124.1 44.699 124.1 53.799V78.699C124.1 103.299 135.3 115.799 157.3 115.799H186C195 115.799 207.9 114.699 215 105.199C221.1 97.399 221.6 85.999 216.7 69.499Z" fill="#3F8C43" fill-opacity="0.26"/>
<path d="M189.102 133.597C186.502 130.597 182.702 128.897 178.802 128.897H143.002C125.402 128.897 111.102 114.597 111.102 96.9966V61.1966C111.102 57.2966 109.402 53.4966 106.402 50.8966C103.502 48.2966 99.5019 47.0966 95.7019 47.5966C72.2019 50.5966 50.6019 63.4966 36.5019 82.8966C22.3019 102.397 17.1019 126.197 21.6019 149.997C28.1019 184.397 55.6019 211.897 90.1019 218.397C95.6019 219.497 101.102 219.997 106.602 219.997C124.702 219.997 142.202 214.397 157.102 203.497C176.502 189.397 189.402 167.797 192.402 144.297C192.902 140.397 191.702 136.497 189.102 133.597Z" fill="#3F8C43" fill-opacity="0.26"/>
</svg>
