<svg width="16" height="16" viewBox="0 0 16 16" fill="none" xmlns="http://www.w3.org/2000/svg">
<g clip-path="url(#clip0_481_4629)">
<path fill-rule="evenodd" clip-rule="evenodd" d="M13.6347 13.6333H11.2613V9.92C11.2613 9.03467 11.2467 7.896 10.028 7.896C8.794 7.896 8.60533 8.86067 8.60533 9.85733V13.6333H6.23467V5.998H8.51V7.042H8.54267C8.85933 6.442 9.63333 5.80867 10.7873 5.80867C13.1907 5.80867 13.634 7.38933 13.634 9.446L13.6347 13.6333ZM3.55933 4.95533C3.19422 4.95533 2.84406 4.81029 2.58588 4.55212C2.32771 4.29394 2.18267 3.94378 2.18267 3.57867C2.18267 3.21355 2.32771 2.86339 2.58588 2.60522C2.84406 2.34704 3.19422 2.202 3.55933 2.202C3.92445 2.202 4.27461 2.34704 4.53278 2.60522C4.79096 2.86339 4.936 3.21355 4.936 3.57867C4.936 3.94378 4.79096 4.29394 4.53278 4.55212C4.27461 4.81029 3.92445 4.95533 3.55933 4.95533ZM4.74667 13.6333H2.372V5.998H4.74667V13.6333ZM15.3333 0H0.666667C0.489856 0 0.320286 0.0702379 0.195262 0.195262C0.0702379 0.320286 0 0.489856 0 0.666667L0 15.3333C0 15.5101 0.0702379 15.6797 0.195262 15.8047C0.320286 15.9298 0.489856 16 0.666667 16H15.3333C15.5101 16 15.6797 15.9298 15.8047 15.8047C15.9298 15.6797 16 15.5101 16 15.3333V0.666667C16 0.489856 15.9298 0.320286 15.8047 0.195262C15.6797 0.0702379 15.5101 0 15.3333 0Z" fill="#2E43FF"/>
</g>
<defs>
<clipPath id="clip0_481_4629">
<rect width="16" height="16" fill="white"/>
</clipPath>
</defs>
</svg>
