<svg width="45" height="44" viewBox="0 0 45 44" fill="none" xmlns="http://www.w3.org/2000/svg">
<path d="M18.8419 22.07C18.8419 21.66 19.1819 21.32 19.5919 21.32H25.0719V12.86C25.0619 12.38 24.6819 12 24.2019 12C18.3119 12 14.2019 16.11 14.2019 22C14.2019 27.89 18.3119 32 24.2019 32C24.6719 32 25.0619 31.62 25.0619 31.14V22.81H19.5919C19.1719 22.82 18.8419 22.48 18.8419 22.07Z" fill="#414141"/>
<path d="M18.8419 22.07C18.8419 21.66 19.1819 21.32 19.5919 21.32H25.0719V12.86C25.0619 12.38 24.6819 12 24.2019 12C18.3119 12 14.2019 16.11 14.2019 22C14.2019 27.89 18.3119 32 24.2019 32C24.6719 32 25.0619 31.62 25.0619 31.14V22.81H19.5919C19.1719 22.82 18.8419 22.48 18.8419 22.07Z" fill="black" fill-opacity="0.2"/>
<path d="M31.502 21.5402L28.662 18.6902C28.372 18.4002 27.892 18.4002 27.602 18.6902C27.312 18.9802 27.312 19.4602 27.602 19.7502L29.162 21.3102H25.062V22.8102H29.152L27.592 24.3702C27.302 24.6602 27.302 25.1402 27.592 25.4302C27.742 25.5802 27.932 25.6502 28.122 25.6502C28.312 25.6502 28.502 25.5802 28.652 25.4302L31.492 22.5802C31.792 22.3002 31.792 21.8302 31.502 21.5402Z" fill="#414141"/>
<path d="M31.502 21.5402L28.662 18.6902C28.372 18.4002 27.892 18.4002 27.602 18.6902C27.312 18.9802 27.312 19.4602 27.602 19.7502L29.162 21.3102H25.062V22.8102H29.152L27.592 24.3702C27.302 24.6602 27.302 25.1402 27.592 25.4302C27.742 25.5802 27.932 25.6502 28.122 25.6502C28.312 25.6502 28.502 25.5802 28.652 25.4302L31.492 22.5802C31.792 22.3002 31.792 21.8302 31.502 21.5402Z" fill="black" fill-opacity="0.2"/>
</svg>
