<svg width="257" height="220" viewBox="0 0 257 220" fill="none" xmlns="http://www.w3.org/2000/svg">
<g clip-path="url(#clip0_130_2129)">
<path d="M75.4129 217.708C79.5323 214.227 82.0344 208.728 81.3782 203.375C80.722 198.022 76.6578 193.101 71.3858 191.965C66.1139 190.828 60.1042 193.975 58.503 199.124C57.6217 189.196 56.6062 178.851 51.3274 170.395C46.5476 162.739 38.2689 157.261 29.2966 156.281C20.3243 155.301 10.8776 159.003 5.28196 166.084C-0.313724 173.166 -1.6838 183.461 2.23527 191.592C5.12231 197.581 10.4413 202.038 16.0142 205.665C34.0224 217.284 55.6208 222.009 76.8355 218.97" fill="#F2F2F2"/>
<path d="M14.1545 159.208C21.5577 165.238 28.3494 171.982 34.4313 179.343C43.9495 190.823 51.6517 203.694 57.2696 217.508C57.6808 218.516 56.0444 218.954 55.6377 217.958C52.0652 209.224 47.6452 200.861 42.4412 192.989C34.3262 180.693 24.3842 169.705 12.9578 160.404C12.113 159.716 13.3166 158.525 14.1545 159.208Z" fill="white"/>
<path d="M78.2582 217.708C74.1388 214.227 71.6366 208.728 72.2928 203.375C72.949 198.022 77.0133 193.101 82.2852 191.965C87.5571 190.828 93.5668 193.975 95.1681 199.124C96.0493 189.196 97.0648 178.851 102.344 170.395C107.123 162.739 115.402 157.261 124.374 156.281C133.347 155.301 142.793 159.003 148.389 166.084C153.985 173.166 155.355 183.461 151.436 191.592C148.549 197.581 143.23 202.038 137.657 205.665C119.649 217.284 98.0503 222.009 76.8355 218.97" fill="#F2F2F2"/>
<path d="M139.517 159.208C132.113 165.238 125.322 171.982 119.24 179.343C109.722 190.823 102.019 203.694 96.4014 217.508C95.9902 218.516 97.6266 218.954 98.0332 217.958C107.225 195.507 121.899 175.719 140.713 160.404C141.558 159.716 140.354 158.525 139.517 159.208Z" fill="white"/>
<path d="M90.4823 99.1505C98.1031 99.1505 104.281 92.9726 104.281 85.3518C104.281 77.731 98.1031 71.5531 90.4823 71.5531C82.8615 71.5531 76.6836 77.731 76.6836 85.3518C76.6836 92.9726 82.8615 99.1505 90.4823 99.1505Z" fill="#F2F2F2"/>
<path d="M47.9372 37.7853H143.006V42.9866H60.0736C55.1974 42.9866 50.3691 43.947 45.8641 45.813C41.3591 47.679 37.2658 50.4141 33.8179 53.862C30.3699 57.31 27.6349 61.4033 25.7688 65.9082C23.9028 70.4132 22.9424 75.2416 22.9424 80.1177V139.211H12.5398C12.08 139.211 11.639 139.028 11.3138 138.703C10.9887 138.378 10.806 137.937 10.806 137.477V74.9164C10.806 70.0402 11.7664 65.2118 13.6324 60.7069C15.4985 56.2019 18.2335 52.1086 21.6815 48.6607C25.1294 45.2127 29.2227 42.4777 33.7277 40.6117C38.2326 38.7457 43.061 37.7853 47.9372 37.7853Z" fill="#F2F2F2"/>
<path d="M66.2232 217.997V138.989H89.3694V217.997C89.3688 218.528 89.1576 219.037 88.782 219.413C88.4065 219.788 87.8974 220 87.3663 220H68.2262C67.6952 220 67.1861 219.788 66.8105 219.413C66.435 219.037 66.2238 218.528 66.2232 217.997Z" fill="#3F3D56"/>
<path d="M5.9097 137.431V73.1848C5.92125 62.9573 9.98924 53.1519 17.2212 45.92C24.4532 38.688 34.2585 34.62 44.486 34.6084H142.561V139.656H8.13529C7.54523 139.656 6.97955 139.421 6.56231 139.004C6.14508 138.587 5.91037 138.021 5.9097 137.431ZM141.671 35.4986H44.486C34.4945 35.51 24.9155 39.4841 17.8504 46.5492C10.7853 53.6143 6.81123 63.1933 6.79994 73.1848V137.431C6.80032 137.785 6.94114 138.124 7.19148 138.375C7.44182 138.625 7.78125 138.766 8.13529 138.766H141.671V35.4986Z" fill="#3F3D56"/>
<path d="M90.4823 92.4735C88.3581 92.4711 86.3216 91.6262 84.8195 90.1242C83.3175 88.6221 82.4726 86.5856 82.4702 84.4614V27.0411C82.4698 26.6871 82.329 26.3476 82.0786 26.0973C81.8283 25.8469 81.4888 25.7061 81.1348 25.7057H49.9765C49.3865 25.7051 48.8208 25.4704 48.4035 25.0531C47.9863 24.6359 47.7516 24.0702 47.7509 23.4801V2.55958C47.7516 1.96952 47.9863 1.40383 48.4035 0.986598C48.8208 0.569366 49.3865 0.334668 49.9765 0.333984H96.2689C96.8589 0.334659 97.4246 0.569357 97.8418 0.986591C98.2591 1.40382 98.4938 1.96952 98.4944 2.55958V84.4614C98.4921 86.5856 97.6472 88.6221 96.1451 90.1242C94.6431 91.6262 92.6065 92.4711 90.4823 92.4735Z" fill="#2E43FF"/>
<path d="M146.122 33.7181C152.837 33.704 159.283 36.358 164.041 41.0962C168.799 45.8344 171.48 52.2687 171.494 58.9836V132.121H221.347C223.35 132.117 225.272 132.908 226.691 134.321C228.11 135.735 228.91 137.654 228.914 139.656H120.75V58.9836C120.764 52.2687 123.445 45.8344 128.204 41.0962C132.962 36.358 139.407 33.704 146.122 33.7181Z" fill="#3F3D56"/>
<path d="M140.034 75.3666L145.287 97.0688L248.057 72.1904L242.803 50.4882C242.74 50.2229 242.61 49.9778 242.427 49.7759C242.243 49.574 242.012 49.4216 241.754 49.3331C241.563 49.2661 241.362 49.2358 241.16 49.2437L181.755 18.4852C181.407 18.3074 181.007 18.2599 180.626 18.3513C180.246 18.4427 179.912 18.6668 179.682 18.9834L151.052 58.9077L140.259 73.9629C140.239 73.9893 140.226 74.0195 140.219 74.0517C140.212 74.0838 140.212 74.117 140.219 74.1491C140 74.5147 139.933 74.9521 140.034 75.3666Z" fill="white"/>
<path d="M140.22 74.1491C140.225 74.1773 140.235 74.2042 140.251 74.2284C140.266 74.2525 140.286 74.2733 140.31 74.2897C140.338 74.3088 140.369 74.322 140.402 74.3285C140.436 74.3351 140.47 74.3348 140.503 74.3277C140.557 74.3134 140.604 74.2808 140.636 74.2355L140.673 74.1841L141.235 73.3982L151.441 59.1703L180.062 19.2551C180.226 19.0289 180.465 18.8688 180.736 18.8038C181.007 18.7387 181.293 18.7731 181.541 18.9007L240.486 49.421L241.015 49.6956C241.036 49.7045 241.058 49.7122 241.081 49.7185C241.121 49.7113 241.161 49.7074 241.202 49.707C241.257 49.6885 241.303 49.6495 241.331 49.598C241.345 49.5709 241.354 49.5413 241.357 49.5107C241.359 49.4802 241.356 49.4494 241.347 49.4201C241.338 49.3908 241.323 49.3636 241.304 49.34C241.284 49.3164 241.26 49.2969 241.233 49.2826L241.16 49.2437L181.755 18.4852C181.407 18.3074 181.007 18.2599 180.627 18.3513C180.247 18.4427 179.912 18.6668 179.682 18.9834L151.052 58.9077L140.259 73.9629C140.24 73.9893 140.226 74.0195 140.219 74.0517C140.212 74.0838 140.212 74.117 140.22 74.1491Z" fill="#3F3D56"/>
<path d="M171.084 76.3622L173.372 76.6159L190.35 78.4967L201.605 79.7428L202.27 79.8167L216.314 68.8468L216.852 68.4266L220.17 65.8359L231.971 56.6192L232.042 55.9718L236.24 18.0859C236.297 17.5642 236.145 17.0411 235.817 16.6313C235.489 16.2215 235.012 15.9584 234.491 15.8997L178.47 9.69398C177.948 9.63701 177.426 9.78908 177.016 10.1169C176.606 10.4447 176.343 10.9215 176.284 11.4429L173.324 38.1668L171.682 52.9829L170.213 66.2378L169.532 72.3935L169.333 74.1765C169.276 74.6984 169.429 75.2215 169.757 75.6311C170.085 76.0408 170.563 76.3037 171.084 76.3622Z" fill="#E6E6E6"/>
<path d="M186.479 43.1536L210.745 45.8413L219.351 46.7941C219.731 46.8362 220.115 46.803 220.482 46.6965C220.849 46.59 221.192 46.4122 221.49 46.1733C221.789 45.9344 222.037 45.6391 222.222 45.3041C222.406 44.9692 222.522 44.6013 222.564 44.2213C222.607 43.8414 222.573 43.4569 222.467 43.0897C222.36 42.7226 222.183 42.3801 221.944 42.0816C221.705 41.7832 221.409 41.5348 221.074 41.3505C220.74 41.1662 220.372 41.0497 219.992 41.0076L209.288 39.8222L187.121 37.3643C186.354 37.2795 185.584 37.503 184.981 37.9856C184.378 38.4681 183.992 39.1704 183.907 39.9378C183.822 40.7053 184.045 41.4751 184.527 42.0782C185.009 42.6812 185.711 43.068 186.479 43.1536Z" fill="white"/>
<path d="M185.097 53.8879C185.16 53.8991 185.223 53.9103 185.286 53.9165L213.456 57.0372L218.159 57.5592C218.927 57.6441 219.696 57.4206 220.299 56.9379C220.902 56.4551 221.289 55.7527 221.373 54.985C221.458 54.2174 221.235 53.4474 220.752 52.8446C220.269 52.2417 219.567 51.8554 218.799 51.7705L211.999 51.0181L189.685 48.5455L185.929 48.1294C185.178 48.0456 184.424 48.2572 183.827 48.7193C183.229 49.1815 182.834 49.858 182.726 50.6058C182.618 51.3537 182.805 52.1143 183.247 52.7268C183.69 53.3393 184.353 53.7557 185.097 53.8879Z" fill="white"/>
<path d="M181.909 63.4063C182.14 63.7895 182.456 64.1144 182.833 64.3557C183.209 64.5969 183.637 64.7481 184.081 64.7974L195.627 66.0762L216.19 68.3543L216.195 68.3532L216.852 68.4265L220.17 65.8358C220.19 65.639 220.19 65.4406 220.17 65.2438C220.1 64.583 219.807 63.9658 219.338 63.4944C218.87 63.023 218.255 62.7256 217.594 62.6515L214.738 62.3341L203.406 61.0802L195.253 60.1759L184.722 59.0087C184.182 58.949 183.636 59.0414 183.146 59.2755C182.656 59.5096 182.242 59.8761 181.949 60.3336C181.656 60.7911 181.498 61.3212 181.491 61.8642C181.483 62.4072 181.628 62.9414 181.909 63.4063Z" fill="white"/>
<path d="M198.126 30.0321L204.164 30.7008L206.831 30.9969L210.859 31.4428C211.627 31.5277 212.397 31.3042 212.999 30.8214C213.602 30.3386 213.989 29.6362 214.074 28.8685C214.158 28.1009 213.935 27.331 213.452 26.7281C212.969 26.1253 212.267 25.7389 211.499 25.654L198.769 24.245C198.002 24.1597 197.232 24.3828 196.629 24.8651C196.026 25.3474 195.639 26.0495 195.554 26.8169C195.469 27.5843 195.692 28.3542 196.174 28.9571C196.657 29.5601 197.359 29.9468 198.126 30.0321Z" fill="white"/>
<path d="M148.756 46.151L156.117 76.5587L168.403 78.8948L179.767 81.0585L191.961 83.3786L195.857 84.12C196.085 84.1631 196.32 84.1572 196.545 84.1026C196.771 84.048 196.982 83.9459 197.165 83.8033L200.291 81.362L202.27 79.8166L216.314 68.8467L207.384 31.9582C207.296 31.5912 207.104 31.2574 206.831 30.9971C206.591 30.7668 206.297 30.6005 205.976 30.5136C205.655 30.4267 205.318 30.4219 204.995 30.4998L150.214 43.7611C149.704 43.8849 149.264 44.2062 148.99 44.6543C148.717 45.1024 148.633 45.6407 148.756 46.151Z" fill="#2E43FF"/>
<path d="M165.635 70.3414C165.817 71.0915 166.289 71.7386 166.948 72.1407C167.607 72.5428 168.399 72.667 169.149 72.486L201.293 64.7046C202.043 64.5219 202.69 64.0494 203.092 63.3906C203.494 62.7318 203.618 61.9404 203.438 61.19C203.43 61.1528 203.419 61.1161 203.406 61.0802C203.201 60.3568 202.724 59.7408 202.074 59.3615C201.425 58.9822 200.654 58.8689 199.923 59.0454L167.779 66.8268C167.029 67.0091 166.382 67.4816 165.98 68.1405C165.578 68.7994 165.454 69.591 165.635 70.3414Z" fill="white"/>
<path d="M168.403 78.8948L179.768 81.0584L203.842 75.2306C204.592 75.049 205.24 74.5766 205.642 73.9175C206.044 73.2584 206.168 72.4665 205.986 71.7161C205.804 70.9656 205.332 70.3181 204.673 69.9159C204.014 69.5137 203.222 69.3898 202.472 69.5715L170.328 77.3529C169.656 77.5142 169.064 77.9108 168.66 78.4708C168.562 78.6046 168.476 78.7465 168.403 78.8948Z" fill="white"/>
<path d="M191.961 83.3785L195.857 84.1199C196.085 84.163 196.32 84.157 196.545 84.1024C196.771 84.0478 196.982 83.9458 197.165 83.8031L200.291 81.3619L191.961 83.3785Z" fill="white"/>
<path d="M172.111 54.0362C172.294 54.7863 172.766 55.4334 173.425 55.8355C174.084 56.2375 174.876 56.3617 175.626 56.1807L188.076 53.1668C188.826 52.9842 189.473 52.5116 189.875 51.8528C190.277 51.194 190.401 50.4027 190.221 49.6523C190.124 49.2491 189.941 48.8715 189.684 48.5456C189.34 48.105 188.876 47.7728 188.348 47.5888C187.82 47.4047 187.25 47.3766 186.706 47.5077L174.256 50.5216C173.506 50.7034 172.858 51.1757 172.456 51.8348C172.054 52.4939 171.93 53.2857 172.111 54.0362Z" fill="white"/>
<path d="M179.766 81.0583L191.962 83.379L195.857 84.1207C196.085 84.1633 196.319 84.1571 196.545 84.1026C196.77 84.048 196.981 83.9463 197.165 83.8042L200.292 81.3623L199.195 81.628L196.878 83.4356C196.747 83.5372 196.596 83.6098 196.435 83.6488C196.274 83.6878 196.106 83.6922 195.943 83.6618L193.059 83.1132L180.864 80.7926L179.766 81.0583ZM216.194 68.3551L216.313 68.8455L216.854 68.425L216.194 68.3551ZM179.766 81.0583L191.962 83.379L195.857 84.1207C196.085 84.1633 196.319 84.1571 196.545 84.1026C196.77 84.048 196.981 83.9463 197.165 83.8042L200.292 81.3623L199.195 81.628L196.878 83.4356C196.747 83.5372 196.596 83.6098 196.435 83.6488C196.274 83.6878 196.106 83.6922 195.943 83.6618L193.059 83.1132L180.864 80.7926L179.766 81.0583ZM179.766 81.0583L191.962 83.379L195.857 84.1207C196.085 84.1633 196.319 84.1571 196.545 84.1026C196.77 84.048 196.981 83.9463 197.165 83.8042L200.292 81.3623L199.195 81.628L196.878 83.4356C196.747 83.5372 196.596 83.6098 196.435 83.6488C196.274 83.6878 196.106 83.6922 195.943 83.6618L193.059 83.1132L180.864 80.7926L179.766 81.0583ZM140.034 75.3667L153.795 132.213C153.897 132.633 154.162 132.995 154.531 133.22C154.9 133.446 155.343 133.515 155.763 133.414L255.363 109.303C255.784 109.201 256.146 108.936 256.371 108.567C256.596 108.198 256.666 107.755 256.565 107.334L242.803 50.4883C242.74 50.2229 242.61 49.9779 242.427 49.776C242.243 49.574 242.012 49.4217 241.754 49.3332C241.563 49.2662 241.362 49.2358 241.16 49.2438C240.925 49.2506 240.694 49.3113 240.486 49.4211C240.39 49.4667 240.299 49.523 240.216 49.5889L232.042 55.9718L220.17 65.2452L216.193 68.3517L216.194 68.3551L216.19 68.3559L201.606 79.7411L199.195 81.628L196.878 83.4356C196.747 83.5372 196.596 83.6098 196.435 83.6488C196.274 83.6878 196.106 83.6922 195.943 83.6618L193.059 83.1132L180.864 80.7926L168.658 78.471L141.924 73.3834C141.696 73.3383 141.461 73.3433 141.235 73.3983C140.931 73.4726 140.655 73.6326 140.439 73.8594C140.356 73.9485 140.283 74.0455 140.219 74.1492C140 74.5148 139.933 74.9522 140.034 75.3667ZM179.766 81.0583L191.962 83.379L195.857 84.1207C196.085 84.1633 196.319 84.1571 196.545 84.1026C196.77 84.048 196.981 83.9463 197.165 83.8042L200.292 81.3623L199.195 81.628L196.878 83.4356C196.747 83.5372 196.596 83.6098 196.435 83.6488C196.274 83.6878 196.106 83.6922 195.943 83.6618L193.059 83.1132L180.864 80.7926L179.766 81.0583ZM179.766 81.0583L191.962 83.379L195.857 84.1207C196.085 84.1633 196.319 84.1571 196.545 84.1026C196.77 84.048 196.981 83.9463 197.165 83.8042L200.292 81.3623L199.195 81.628L196.878 83.4356C196.747 83.5372 196.596 83.6098 196.435 83.6488C196.274 83.6878 196.106 83.6922 195.943 83.6618L193.059 83.1132L180.864 80.7926L179.766 81.0583ZM179.766 81.0583L191.962 83.379L195.857 84.1207C196.085 84.1633 196.319 84.1571 196.545 84.1026C196.77 84.048 196.981 83.9463 197.165 83.8042L200.292 81.3623L199.195 81.628L196.878 83.4356C196.747 83.5372 196.596 83.6098 196.435 83.6488C196.274 83.6878 196.106 83.6922 195.943 83.6618L193.059 83.1132L180.864 80.7926L179.766 81.0583Z" fill="white"/>
<path d="M179.766 81.0583L191.962 83.379L195.857 84.1207C196.085 84.1633 196.319 84.1571 196.545 84.1026C196.77 84.048 196.981 83.9463 197.165 83.8041L200.292 81.3623L199.195 81.628L196.878 83.4356C196.747 83.5372 196.596 83.6098 196.435 83.6488C196.274 83.6878 196.106 83.6922 195.943 83.6618L193.059 83.1132L180.864 80.7926L179.766 81.0583ZM216.194 68.3551L216.313 68.8455L216.854 68.425L216.194 68.3551ZM179.766 81.0583L191.962 83.379L195.857 84.1207C196.085 84.1633 196.319 84.1571 196.545 84.1026C196.77 84.048 196.981 83.9463 197.165 83.8041L200.292 81.3623L199.195 81.628L196.878 83.4356C196.747 83.5372 196.596 83.6098 196.435 83.6488C196.274 83.6878 196.106 83.6922 195.943 83.6618L193.059 83.1132L180.864 80.7926L179.766 81.0583ZM179.766 81.0583L191.962 83.379L195.857 84.1207C196.085 84.1633 196.319 84.1571 196.545 84.1026C196.77 84.048 196.981 83.9463 197.165 83.8041L200.292 81.3623L199.195 81.628L196.878 83.4356C196.747 83.5372 196.596 83.6098 196.435 83.6488C196.274 83.6878 196.106 83.6922 195.943 83.6618L193.059 83.1132L180.864 80.7926L179.766 81.0583ZM140.673 74.1842L140.733 74.2296C140.743 74.213 140.761 74.1982 140.774 74.1808C140.909 74.0404 141.077 73.9357 141.262 73.8761C141.447 73.8164 141.645 73.8037 141.836 73.839L168.403 78.8929L179.766 81.0583L191.962 83.379L195.857 84.1207C196.085 84.1633 196.319 84.1571 196.545 84.1026C196.77 84.048 196.981 83.9463 197.165 83.8041L200.292 81.3623L199.195 81.628L196.878 83.4356C196.747 83.5372 196.596 83.6098 196.435 83.6488C196.274 83.6878 196.106 83.6922 195.943 83.6618L193.059 83.1132L180.864 80.7926L168.658 78.471L141.924 73.3834C141.696 73.3382 141.461 73.3433 141.235 73.3983L140.673 74.1842ZM140.034 75.3667L153.795 132.213C153.897 132.633 154.162 132.995 154.531 133.22C154.9 133.446 155.343 133.515 155.763 133.414L255.363 109.303C255.784 109.201 256.146 108.936 256.371 108.567C256.596 108.198 256.666 107.755 256.565 107.334L242.803 50.4883C242.74 50.2229 242.61 49.9779 242.427 49.776C242.243 49.574 242.012 49.4217 241.754 49.3332C241.563 49.2662 241.362 49.2358 241.16 49.2438C240.925 49.2506 240.694 49.3113 240.486 49.4211C240.39 49.4667 240.299 49.523 240.216 49.5889L232.042 55.9718L220.17 65.2452L216.193 68.3517L216.194 68.3551L216.19 68.3559L201.606 79.7411L199.195 81.628L196.878 83.4356C196.747 83.5372 196.596 83.6098 196.435 83.6488C196.274 83.6878 196.106 83.6922 195.943 83.6618L193.059 83.1132L180.864 80.7926L168.658 78.471L141.924 73.3834C141.696 73.3382 141.461 73.3433 141.235 73.3983C140.931 73.4726 140.655 73.6326 140.439 73.8594C140.356 73.9485 140.283 74.0455 140.219 74.1491C140 74.5147 139.933 74.9522 140.034 75.3667ZM140.488 75.2568C140.447 75.0892 140.444 74.9147 140.48 74.746C140.515 74.5773 140.588 74.4187 140.693 74.2817C140.702 74.2616 140.716 74.2438 140.733 74.2296C140.743 74.213 140.761 74.1982 140.774 74.1808C140.909 74.0404 141.077 73.9357 141.262 73.8761C141.447 73.8164 141.645 73.8037 141.836 73.839L168.403 78.8929L179.766 81.0583L191.962 83.379L195.857 84.1207C196.085 84.1633 196.319 84.1571 196.545 84.1026C196.77 84.048 196.981 83.9463 197.165 83.8041L200.292 81.3623L202.271 79.8169L216.313 68.8455L216.854 68.425L220.168 65.8355L231.972 56.6173L240.505 49.9532C240.635 49.8521 240.785 49.7797 240.945 49.7409C240.989 49.73 241.035 49.7225 241.081 49.7186C241.12 49.7114 241.161 49.7075 241.201 49.707C241.338 49.7057 241.473 49.7279 241.602 49.7724C241.786 49.8365 241.951 49.9455 242.082 50.0896C242.213 50.2336 242.306 50.4082 242.353 50.5973L256.114 107.443C256.15 107.592 256.157 107.747 256.133 107.899C256.11 108.05 256.056 108.195 255.976 108.326C255.897 108.457 255.792 108.571 255.668 108.661C255.544 108.751 255.403 108.816 255.254 108.852L155.654 132.964C155.354 133.036 155.037 132.986 154.773 132.824C154.51 132.663 154.321 132.403 154.249 132.103L140.488 75.2568ZM179.766 81.0583L191.962 83.379L195.857 84.1207C196.085 84.1633 196.319 84.1571 196.545 84.1026C196.77 84.048 196.981 83.9463 197.165 83.8041L200.292 81.3623L199.195 81.628L196.878 83.4356C196.747 83.5372 196.596 83.6098 196.435 83.6488C196.274 83.6878 196.106 83.6922 195.943 83.6618L193.059 83.1132L180.864 80.7926L179.766 81.0583ZM179.766 81.0583L191.962 83.379L195.857 84.1207C196.085 84.1633 196.319 84.1571 196.545 84.1026C196.77 84.048 196.981 83.9463 197.165 83.8041L200.292 81.3623L199.195 81.628L196.878 83.4356C196.747 83.5372 196.596 83.6098 196.435 83.6488C196.274 83.6878 196.106 83.6922 195.943 83.6618L193.059 83.1132L180.864 80.7926L179.766 81.0583ZM179.766 81.0583L191.962 83.379L195.857 84.1207C196.085 84.1633 196.319 84.1571 196.545 84.1026C196.77 84.048 196.981 83.9463 197.165 83.8041L200.292 81.3623L199.195 81.628L196.878 83.4356C196.747 83.5372 196.596 83.6098 196.435 83.6488C196.274 83.6878 196.106 83.6922 195.943 83.6618L193.059 83.1132L180.864 80.7926L179.766 81.0583Z" fill="#3F3D56"/>
<path d="M229.405 98.1344C229.18 97.2029 229.335 96.2204 229.834 95.4026C230.333 94.5847 231.136 93.9981 232.067 93.7717L244.638 90.7285C245.568 90.5068 246.548 90.6628 247.364 91.1623C248.179 91.6619 248.763 92.4642 248.988 93.3936C249.213 94.3231 249.061 95.3038 248.564 96.121C248.067 96.9381 247.267 97.5251 246.338 97.7534L233.767 100.797C232.836 101.021 231.854 100.867 231.036 100.368C230.218 99.8685 229.631 99.0654 229.405 98.1344Z" fill="#2E43FF"/>
<path d="M90.4824 87.5773C92.2032 87.5773 93.5982 86.1823 93.5982 84.4615C93.5982 82.7406 92.2032 81.3456 90.4824 81.3456C88.7616 81.3456 87.3666 82.7406 87.3666 84.4615C87.3666 86.1823 88.7616 87.5773 90.4824 87.5773Z" fill="white"/>
</g>
<defs>
<clipPath id="clip0_130_2129">
<rect width="256.611" height="219.666" fill="white" transform="translate(0 0.333984)"/>
</clipPath>
</defs>
</svg>
