<svg width="256" height="256" viewBox="0 0 256 256" fill="none" xmlns="http://www.w3.org/2000/svg">
<path d="M186.987 82.8797C186.24 82.773 185.493 82.773 184.747 82.8797C168.213 82.3463 155.093 68.7997 155.093 52.1597C155.093 35.1997 168.853 21.333 185.92 21.333C202.88 21.333 216.747 35.093 216.747 52.1597C216.64 68.7997 203.52 82.3463 186.987 82.8797Z" fill="#AA46FB" fill-opacity="0.35"/>
<path d="M221.76 156.8C209.814 164.8 193.067 167.787 177.6 165.76C181.654 157.014 183.787 147.307 183.894 137.067C183.894 126.4 181.547 116.267 177.067 107.414C192.854 105.28 209.6 108.267 221.654 116.267C238.507 127.36 238.507 145.6 221.76 156.8Z" fill="#AA46FB" fill-opacity="0.35"/>
<path d="M68.6934 82.8797C69.44 82.773 70.1867 82.773 70.9334 82.8797C87.4667 82.3463 100.587 68.7997 100.587 52.1597C100.587 35.093 86.8267 21.333 69.76 21.333C52.8 21.333 39.04 35.093 39.04 52.1597C39.04 68.7997 52.16 82.3463 68.6934 82.8797Z" fill="#AA46FB" fill-opacity="0.35"/>
<path d="M69.8665 137.067C69.8665 147.414 72.1065 157.227 76.1598 166.08C61.1198 167.68 45.4398 164.48 33.9198 156.907C17.0665 145.707 17.0665 127.467 33.9198 116.267C45.3331 108.587 61.4398 105.494 76.5865 107.2C72.2131 116.16 69.8665 126.294 69.8665 137.067Z" fill="#AA46FB" fill-opacity="0.35"/>
<path d="M129.28 169.28C128.427 169.173 127.467 169.173 126.507 169.28C106.88 168.64 91.2002 152.533 91.2002 132.693C91.3069 112.427 107.627 96 128 96C148.267 96 164.694 112.427 164.694 132.693C164.587 152.533 149.014 168.64 129.28 169.28Z" fill="#AA46FB" fill-opacity="0.35"/>
<path d="M94.6132 191.36C78.5065 202.133 78.5065 219.84 94.6132 230.507C112.96 242.773 143.04 242.773 161.387 230.507C177.493 219.733 177.493 202.027 161.387 191.36C143.147 179.093 113.067 179.093 94.6132 191.36Z" fill="#AA46FB" fill-opacity="0.35"/>
</svg>
