<svg width="43" height="44" viewBox="0 0 43 44" fill="none" xmlns="http://www.w3.org/2000/svg">
<path d="M25.2617 12H17.7008C14.4166 12 12.4587 14.17 12.4587 17.81V26.18C12.4587 29.83 14.4166 32 17.7008 32H25.2527C28.5369 32 30.4948 29.83 30.4948 26.19V17.81C30.5039 14.17 28.546 12 25.2617 12ZM26.2272 19.96L24.1429 22.94C23.8813 23.31 23.5114 23.55 23.0873 23.6C22.6632 23.66 22.2482 23.53 21.9144 23.24L20.2633 21.8C20.2001 21.74 20.1279 21.74 20.0918 21.75C20.0557 21.75 19.9926 21.77 19.9384 21.85L17.7911 24.94C17.6557 25.13 17.4572 25.23 17.2587 25.23C17.1144 25.23 16.97 25.18 16.8437 25.07C16.546 24.82 16.4918 24.35 16.7174 24.02L18.8648 20.93C19.1264 20.56 19.4963 20.32 19.9204 20.26C20.3354 20.2 20.7595 20.33 21.0933 20.62L22.7445 22.06C22.8076 22.12 22.8708 22.12 22.9159 22.11C22.952 22.11 23.0151 22.09 23.0693 22.01L25.1535 19.03C25.379 18.7 25.8121 18.64 26.1008 18.9C26.3986 19.17 26.4527 19.64 26.2272 19.96Z" fill="#414141"/>
<path d="M25.2617 12H17.7008C14.4166 12 12.4587 14.17 12.4587 17.81V26.18C12.4587 29.83 14.4166 32 17.7008 32H25.2527C28.5369 32 30.4948 29.83 30.4948 26.19V17.81C30.5039 14.17 28.546 12 25.2617 12ZM26.2272 19.96L24.1429 22.94C23.8813 23.31 23.5114 23.55 23.0873 23.6C22.6632 23.66 22.2482 23.53 21.9144 23.24L20.2633 21.8C20.2001 21.74 20.1279 21.74 20.0918 21.75C20.0557 21.75 19.9926 21.77 19.9384 21.85L17.7911 24.94C17.6557 25.13 17.4572 25.23 17.2587 25.23C17.1144 25.23 16.97 25.18 16.8437 25.07C16.546 24.82 16.4918 24.35 16.7174 24.02L18.8648 20.93C19.1264 20.56 19.4963 20.32 19.9204 20.26C20.3354 20.2 20.7595 20.33 21.0933 20.62L22.7445 22.06C22.8076 22.12 22.8708 22.12 22.9159 22.11C22.952 22.11 23.0151 22.09 23.0693 22.01L25.1535 19.03C25.379 18.7 25.8121 18.64 26.1008 18.9C26.3986 19.17 26.4527 19.64 26.2272 19.96Z" fill="black" fill-opacity="0.2"/>
</svg>
