<svg width="42" height="44" viewBox="0 0 42 44" fill="none" xmlns="http://www.w3.org/2000/svg">
<path d="M28.4434 19.2199C26.8103 19.2199 26.1426 17.9399 26.9547 16.3699C27.4238 15.4599 27.1441 14.2999 26.3231 13.7799L24.7622 12.7899C24.0494 12.3199 23.1291 12.5999 22.705 13.3899L22.6058 13.5799C21.7938 15.1499 20.4584 15.1499 19.6374 13.5799L19.5381 13.3899C19.1321 12.5999 18.2118 12.3199 17.499 12.7899L15.9381 13.7799C15.1171 14.2999 14.8374 15.4699 15.3065 16.3799C16.1276 17.9399 15.4599 19.2199 13.8268 19.2199C12.8885 19.2199 12.1125 20.0699 12.1125 21.1199V22.8799C12.1125 23.9199 12.8795 24.7799 13.8268 24.7799C15.4599 24.7799 16.1276 26.0599 15.3065 27.6299C14.8374 28.5399 15.1171 29.6999 15.9381 30.2199L17.499 31.2099C18.2118 31.6799 19.1321 31.3999 19.5562 30.6099L19.6554 30.4199C20.4674 28.8499 21.8028 28.8499 22.6238 30.4199L22.7231 30.6099C23.1471 31.3999 24.0674 31.6799 24.7802 31.2099L26.3411 30.2199C27.1622 29.6999 27.4419 28.5299 26.9727 27.6299C26.1516 26.0599 26.8193 24.7799 28.4524 24.7799C29.3907 24.7799 30.1667 23.9299 30.1667 22.8799V21.1199C30.1577 20.0799 29.3907 19.2199 28.4434 19.2199ZM21.1351 25.2499C19.5201 25.2499 18.2028 23.7899 18.2028 21.9999C18.2028 20.2099 19.5201 18.7499 21.1351 18.7499C22.7501 18.7499 24.0674 20.2099 24.0674 21.9999C24.0674 23.7899 22.7501 25.2499 21.1351 25.2499Z" fill="#414141"/>
<path d="M28.4434 19.2199C26.8103 19.2199 26.1426 17.9399 26.9547 16.3699C27.4238 15.4599 27.1441 14.2999 26.3231 13.7799L24.7622 12.7899C24.0494 12.3199 23.1291 12.5999 22.705 13.3899L22.6058 13.5799C21.7938 15.1499 20.4584 15.1499 19.6374 13.5799L19.5381 13.3899C19.1321 12.5999 18.2118 12.3199 17.499 12.7899L15.9381 13.7799C15.1171 14.2999 14.8374 15.4699 15.3065 16.3799C16.1276 17.9399 15.4599 19.2199 13.8268 19.2199C12.8885 19.2199 12.1125 20.0699 12.1125 21.1199V22.8799C12.1125 23.9199 12.8795 24.7799 13.8268 24.7799C15.4599 24.7799 16.1276 26.0599 15.3065 27.6299C14.8374 28.5399 15.1171 29.6999 15.9381 30.2199L17.499 31.2099C18.2118 31.6799 19.1321 31.3999 19.5562 30.6099L19.6554 30.4199C20.4674 28.8499 21.8028 28.8499 22.6238 30.4199L22.7231 30.6099C23.1471 31.3999 24.0674 31.6799 24.7802 31.2099L26.3411 30.2199C27.1622 29.6999 27.4419 28.5299 26.9727 27.6299C26.1516 26.0599 26.8193 24.7799 28.4524 24.7799C29.3907 24.7799 30.1667 23.9299 30.1667 22.8799V21.1199C30.1577 20.0799 29.3907 19.2199 28.4434 19.2199ZM21.1351 25.2499C19.5201 25.2499 18.2028 23.7899 18.2028 21.9999C18.2028 20.2099 19.5201 18.7499 21.1351 18.7499C22.7501 18.7499 24.0674 20.2099 24.0674 21.9999C24.0674 23.7899 22.7501 25.2499 21.1351 25.2499Z" fill="black" fill-opacity="0.2"/>
</svg>
