<svg width="240" height="240" viewBox="0 0 240 240" fill="none" xmlns="http://www.w3.org/2000/svg">
<path d="M223.6 82.7L220.7 55C216.5 24.8 202.8 12.5 173.5 12.5H149.9H135.1H104.7H89.8999H65.8999C36.4999 12.5 22.8999 24.8 18.5999 55.3L15.8999 82.8C14.8999 93.5 17.7999 103.9 24.0999 112C31.6999 121.9 43.3999 127.5 56.3999 127.5C68.9999 127.5 81.0999 121.2 88.6999 111.1C95.4999 121.2 107.1 127.5 120 127.5C132.9 127.5 144.2 121.5 151.1 111.5C158.8 121.4 170.7 127.5 183.1 127.5C196.4 127.5 208.4 121.6 215.9 111.2C221.9 103.2 224.6 93.1 223.6 82.7Z" fill="#7B5C39" fill-opacity="0.35"/>
<path d="M113.5 166.6C100.8 167.9 91.2002 178.7 91.2002 191.5V218.9C91.2002 221.6 93.4002 223.8 96.1002 223.8H143.8C146.5 223.8 148.7 221.6 148.7 218.9V195C148.8 174.1 136.5 164.2 113.5 166.6Z" fill="#7B5C39" fill-opacity="0.35"/>
<path d="M213.7 144V173.8C213.7 201.4 191.3 223.8 163.7 223.8C161 223.8 158.8 221.6 158.8 218.9V195C158.8 182.2 154.9 172.2 147.3 165.4C140.6 159.3 131.5 156.3 120.2 156.3C117.7 156.3 115.2 156.4 112.5 156.7C94.6998 158.5 81.1998 173.5 81.1998 191.5V218.9C81.1998 221.6 78.9998 223.8 76.2998 223.8C48.6998 223.8 26.2998 201.4 26.2998 173.8V144.2C26.2998 137.2 33.1998 132.5 39.6998 134.8C42.3998 135.7 45.0998 136.4 47.8998 136.8C49.0998 137 50.3998 137.2 51.5998 137.2C53.1998 137.4 54.7998 137.5 56.3998 137.5C67.9998 137.5 79.3998 133.2 88.3998 125.8C96.9998 133.2 108.2 137.5 120 137.5C131.9 137.5 142.9 133.4 151.5 126C160.5 133.3 171.7 137.5 183.1 137.5C184.9 137.5 186.7 137.4 188.4 137.2C189.6 137.1 190.7 137 191.8 136.8C194.9 136.4 197.7 135.5 200.5 134.6C207 132.4 213.7 137.2 213.7 144Z" fill="#7B5C39" fill-opacity="0.35"/>
</svg>
