<svg width="1272" height="493" viewBox="0 0 1272 493" fill="none" xmlns="http://www.w3.org/2000/svg">
<g clip-path="url(#clip0_403_7450)">
<rect width="1272" height="493" rx="20" fill="#F1FFF2"/>
<g clip-path="url(#clip1_403_7450)">
<path d="M655.873 239.017C661.302 232.141 669.25 229.368 673.625 232.824C678.001 236.279 677.147 244.653 671.715 251.531C669.583 254.308 666.817 256.534 663.649 258.024L640.281 286.868L626.979 275.614L651.428 248.373C652.141 244.944 653.666 241.736 655.873 239.017Z" fill="#FFB6B6"/>
<path d="M569.759 226.677L603.856 284.621L645.132 256.108L661.735 262.73C661.735 262.73 632.403 326.573 607.111 322.421C581.819 318.268 531.494 261.14 537.27 241.19C543.047 221.24 569.759 226.677 569.759 226.677Z" fill="#2E43FF"/>
<path d="M672.537 208.821L653.485 214.447L666.613 258.902L685.665 253.276L672.537 208.821Z" fill="#2E43FF"/>
<path d="M565.48 228.12L565.887 200.948L549.131 190.503L530.911 212.79L565.48 228.12Z" fill="#FFB6B6"/>
<path opacity="0.1" d="M565.479 228.12L566.564 201.625L549.131 190.503L555.054 223.291L565.479 228.12Z" fill="black"/>
<path d="M556.506 203.654C572.964 203.654 586.306 190.313 586.306 173.855C586.306 157.397 572.964 144.055 556.506 144.055C540.048 144.055 526.707 157.397 526.707 173.855C526.707 190.313 540.048 203.654 556.506 203.654Z" fill="#FFB6B6"/>
<path d="M606.174 407.791L600.924 443.483L598.284 461.457L587.292 536.246C573.424 535.811 559.736 535.186 546.256 534.401L548.214 488.862L549.396 461.457L550.172 443.483L550.654 432.169L543.588 405.18C543.588 405.18 541.261 400.857 538.896 395.096C538.48 394.075 538.054 393.006 537.647 391.908C534.715 384.066 532.388 374.729 535.311 369.848C535.453 369.621 535.594 369.403 535.755 369.195C537.08 367.483 540.514 366.206 545.177 365.26C548.025 364.674 551.345 364.22 554.921 363.87C565.743 362.801 578.958 362.64 589.071 362.744C598.218 362.819 604.821 363.103 604.821 363.103L604.916 366.121L604.925 366.414L604.991 368.703L605.152 374.171L605.559 387.68L605.975 401.406L606.174 407.791Z" fill="#2F2E41"/>
<path d="M605.975 401.407L591.246 430.95L581.928 443.484L568.581 461.458L548.214 488.863L515.918 532.331C500.385 531.12 485.155 529.673 470.293 528.027L509.826 461.458L520.497 443.484L530.798 426.145L537.344 399.023C537.344 399.023 537.344 397.576 537.449 395.258C537.496 394.284 537.562 393.149 537.647 391.91C538.224 383.632 539.974 370.436 545.177 365.261C545.877 364.552 546.643 364.003 547.476 363.625C549.037 362.925 551.638 363.095 554.921 363.871C563.037 365.81 575.297 371.524 586.308 377.2C593.923 381.135 600.933 385.042 605.559 387.681L605.975 401.407Z" fill="#2F2E41"/>
<path d="M534.741 207.041L568.595 223.291C568.595 223.291 604.48 329.591 604.48 335.007C604.48 340.424 614.636 343.809 608.542 349.903C602.448 355.997 619.884 361.157 610.489 366.025C601.094 370.892 542.488 397.516 535.971 395.115C517.997 388.494 536.733 364.161 536.733 364.161C536.733 364.161 523.231 353.288 525.262 347.872C527.294 342.455 513.075 238.863 513.075 238.863L534.741 207.041Z" fill="#2E43FF"/>
<path d="M559.014 180.779L566.493 184.964C566.493 184.964 561.906 171.398 565.254 165.415C568.602 159.431 566.65 155.196 566.65 155.196C566.65 155.196 578.592 159.129 581.737 154.21C584.882 149.292 585.922 146.731 575.679 142.571C565.436 138.41 569.29 141.352 569.29 141.352C569.29 141.352 560.542 138.029 562.469 139.5C564.396 140.971 555.218 137.014 556.511 138.916C557.803 140.818 550.755 137.267 552.048 139.169C553.341 141.071 535.718 143.781 539.343 145.024C542.969 146.267 524.484 147.709 525.04 162.162C525.595 176.615 515.529 180.715 522.957 184.916C530.385 189.117 540.753 207.096 540.753 207.096L549.496 201.153C549.496 201.153 546.869 177.912 559.014 180.779Z" fill="#2F2E41"/>
<path d="M495.531 335.638C504.219 334.513 510.681 329.117 509.964 323.588C509.247 318.059 501.623 314.491 492.932 315.618C489.454 316.021 486.123 317.25 483.218 319.204L446.466 324.438L449.29 341.632L485.221 334.647C488.529 335.796 492.065 336.136 495.531 335.638Z" fill="#A0616A"/>
<path d="M383.176 260.187L393.256 335.23C393.256 335.23 396.029 351.369 421.269 348.993C446.509 346.616 479.679 336.828 479.679 336.828L477.52 319.304L449.329 322.358C449.329 322.358 436.169 319.166 433.557 321.319C430.944 323.472 432.144 325.992 429.561 322.857C426.977 319.722 428.274 317.776 426.012 320.517C423.75 323.259 423.291 328.025 421.936 322.122C420.581 316.22 418.06 317.42 418.06 317.42L416.626 262.45C416.626 262.45 409.054 236.228 395.222 244.995C381.39 253.762 383.176 260.187 383.176 260.187Z" fill="#E6E6E6"/>
<path d="M427.359 200.313H377.434V274.084H427.359V200.313Z" fill="#2F2E41"/>
<path d="M388.64 251.591L390.389 230.462H413.636L418.789 252.848L388.64 251.591Z" fill="#A0616A"/>
<path opacity="0.1" d="M388.64 251.591L390.389 230.462H413.636L418.789 252.848L388.64 251.591Z" fill="black"/>
<path d="M430.756 215.844C433.004 201.991 423.596 188.938 409.743 186.69C395.89 184.442 382.838 193.85 380.59 207.703C378.341 221.556 387.749 234.609 401.602 236.857C415.456 239.105 428.508 229.697 430.756 215.844Z" fill="#A0616A"/>
<path d="M412.083 185.038C412.083 185.038 412.083 174.606 402.396 176.841C392.709 179.077 389.728 182.803 389.728 182.803C389.728 182.803 386.003 188.764 380.041 189.509C374.08 190.254 368.864 207.393 369.609 211.118C370.354 214.844 374.08 224.531 368.864 229.002C363.648 233.473 356.197 240.179 358.432 246.886C360.667 253.592 367.374 270.731 367.374 270.731C367.374 270.731 348.669 273.465 350.197 285.138C350.197 285.138 359.177 278.182 371.1 278.182C383.022 278.182 381.532 256.552 381.532 256.552C381.532 256.552 382.277 243.16 384.512 239.434C386.748 235.708 383.767 214.844 394.945 203.667C406.122 192.49 412.083 185.038 412.083 185.038Z" fill="#2F2E41"/>
<path d="M409.103 182.803C409.103 182.803 423.261 185.783 428.477 199.941C433.693 214.099 431.058 216.734 431.058 216.734C431.058 216.734 432.212 225.259 438.541 228.248C444.87 231.238 439.654 243.905 439.654 243.905C439.654 243.905 441.144 256.573 461.263 261.044C481.383 265.515 436.034 299.8 436.034 299.8C436.034 299.8 439.294 283.618 418.43 282.873C397.565 282.128 422.515 243.905 422.515 243.905L424.751 219.315C424.751 219.315 420.28 190.999 406.867 187.274C393.454 183.548 409.103 182.803 409.103 182.803Z" fill="#2F2E41"/>
<path d="M445.178 408.474L440.032 443.485L437.392 461.458L432.918 491.862L428.387 522.673C423.023 521.897 417.725 521.093 412.494 520.26C403.507 518.832 394.71 517.328 386.101 515.739L387.776 476.641L388.428 461.458L389.204 443.485L389.658 432.843L382.582 405.854C382.582 405.854 367.986 378.676 374.759 369.878C375.071 369.481 375.487 369.103 376.017 368.753C377.739 367.589 380.577 366.662 384.143 365.943C392.572 364.221 405.059 363.597 416.439 363.436C431.045 363.228 443.815 363.786 443.815 363.786L443.891 366.009L444.033 370.834L445.178 408.474Z" fill="#2F2E41"/>
<path d="M445.178 408.474L440.031 443.484L437.392 461.458L432.918 491.862L412.494 520.26C403.507 518.832 394.71 517.328 386.101 515.738C379.773 514.575 373.558 513.364 367.437 512.115L387.776 476.641L396.479 461.458L406.771 443.484L411.718 434.857L416.022 427.346L419.173 413.346L421.594 402.609L422.152 400.13C422.152 400.13 422.096 396.233 422.465 391.002C423.032 383.074 424.593 372.063 428.888 366.888C429.72 365.867 430.666 365.082 431.735 364.58C433.968 363.53 438.376 364.249 443.891 366.009L444.033 370.833L445.178 408.474Z" fill="#2F2E41"/>
<path d="M420.461 251.728L419.841 251.552L389.315 242.926L364.941 276.102L381.191 345.163L375.097 372.923C375.097 372.923 424.523 360.059 444.158 370.892C444.158 370.892 445.512 364.718 444.158 361.712C442.804 358.705 440.773 346.192 442.804 340.6C444.835 335.007 438.742 308.602 438.742 308.602C438.742 308.602 440.773 290.998 431.971 282.196C423.169 273.394 420.461 251.728 420.461 251.728Z" fill="#E6E6E6"/>
<path d="M411.988 435.957C414.176 444.44 420.328 450.186 425.726 448.793C431.124 447.399 433.725 439.393 431.534 430.907C430.705 427.506 429.074 424.352 426.777 421.71L417.049 385.885L400.334 390.808L411.699 425.603C410.967 429.028 411.066 432.578 411.988 435.957Z" fill="#A0616A"/>
<path d="M416.421 282.221C416.421 282.221 406.953 256.637 396.577 258.303C386.201 259.968 376.742 276.05 376.742 276.05L384.242 367.059L404.845 418.995L426.7 410.379L415.348 358.475L416.421 282.221Z" fill="#E6E6E6"/>
<path opacity="0.7" d="M889.76 124.217V516.448C889.447 516.514 889.135 516.571 888.814 516.618C884.018 517.489 879.155 518.321 874.236 519.135C868.39 520.099 862.459 521.036 856.452 521.935C851.457 522.673 846.415 523.391 841.316 524.082C826.474 526.116 811.215 527.923 795.587 529.493C790.583 530.004 785.532 530.486 780.452 530.94C736.038 534.932 688.834 537.089 639.889 537.089C632.955 537.089 626.068 537.042 619.21 536.957C618.888 536.957 618.576 536.957 618.264 536.947V124.217H889.76Z" fill="#F2F2F2"/>
<path d="M888.814 253.616V254.78L888.937 254.534C888.927 254.231 888.88 253.928 888.814 253.616ZM618.264 377.199L617.318 376.432V461.457H618.264V536.946C618.576 536.956 618.888 536.956 619.21 536.956V319.853C618.898 320.024 618.585 320.184 618.264 320.345V377.199ZM617.318 123.27V536.927C617.63 536.937 617.942 536.946 618.264 536.946C618.576 536.956 618.888 536.956 619.21 536.956V125.161H888.814V516.617C889.135 516.57 889.448 516.513 889.76 516.447C890.072 516.4 890.394 516.343 890.706 516.277V123.27H617.318Z" fill="#3F3D56"/>
<path d="M641.436 420.783C651.363 420.783 659.41 412.736 659.41 402.81C659.41 392.883 651.363 384.836 641.436 384.836C631.51 384.836 623.463 392.883 623.463 402.81C623.463 412.736 631.51 420.783 641.436 420.783Z" fill="#3F3D56"/>
<path d="M639.11 397.83C645.562 403.756 653.849 405.231 657.62 401.124C661.391 397.018 659.217 388.886 652.762 382.958C650.216 380.555 647.131 378.796 643.766 377.83L616.112 353.064L604.767 366.29L633.234 389.3C634.483 392.572 636.498 395.497 639.11 397.83Z" fill="#FFB6B6"/>
<path d="M559.181 266.429C559.181 266.429 537.318 250.115 529.518 257.158C521.719 264.201 522.532 282.841 522.532 282.841L578.343 355.119L623.887 387.484L637.536 368.364L599.771 330.992L559.181 266.429Z" fill="#2E43FF"/>
<path d="M795.587 429.294V529.492C790.583 530.003 785.532 530.485 780.452 530.939V429.294H795.587Z" fill="#3F3D56"/>
<path d="M243.136 429.294V474.796C237.848 472.459 232.796 470.056 228 467.606V429.294H243.136Z" fill="#3F3D56"/>
<path d="M789.907 443.484H238.401V461.458H789.907V443.484Z" fill="#2E43FF"/>
<path d="M912.115 177.827C912.115 177.827 902.025 183.745 905.334 189.597C908.643 195.449 913.257 203.42 910.127 205.931C906.997 208.441 901.83 219.51 901.83 219.51C901.83 219.51 879.774 216.429 881.845 233.562C883.915 250.695 894.277 253.03 885.396 260.567C876.515 268.105 894.626 277.119 894.626 277.119C894.626 277.119 907.129 273.223 909.981 261.241C912.834 249.26 907.438 270.402 909.248 271.918C911.057 273.434 918.083 283.427 923.055 270.141C928.027 256.856 923.104 251.705 929.673 243.863C936.242 236.022 940.708 223.34 940.513 221.123C940.317 218.906 948.027 198.676 936.16 190.786C924.292 182.897 912.115 177.827 912.115 177.827Z" fill="#2F2E41"/>
<path d="M826.465 364.663C821.407 370.363 814.365 372.373 810.739 369.153C807.112 365.933 808.273 358.704 813.334 353.003C815.325 350.698 817.838 348.903 820.665 347.768L842.403 323.89L853.391 334.33L830.794 356.761C830.003 359.703 828.519 362.413 826.465 364.663Z" fill="#FFB6B6"/>
<path d="M890.032 252.313C890.032 252.313 903.215 240.202 908.778 244.279C914.34 248.356 915.054 260.58 915.054 260.58L883.445 311.494L837.856 349.92L827.669 338.349L867.845 297.174L890.032 252.313Z" fill="#3F3D56"/>
<path d="M916.75 224.874L909.608 250.259H948.806L935.898 218.98L916.75 224.874Z" fill="#FFB6B6"/>
<path opacity="0.1" d="M916.75 224.874L909.608 250.259H948.806L935.898 218.98L916.75 224.874Z" fill="black"/>
<path d="M936.625 308.646L959.61 362.944L881.826 359.102L887.112 308.646H936.625Z" fill="#FFB6B6"/>
<path d="M914.141 237.262L946.575 235.91L968.198 273.75L949.278 334.564L883.059 341.321L890.229 282.671L893.87 249.424L914.141 237.262Z" fill="#3F3D56"/>
<path d="M968.201 413.883C966.64 421.442 964.946 431.8 963.291 443.029C962.43 448.875 961.579 454.958 960.765 461.002C958.665 476.507 956.792 491.766 955.553 502.153C945.261 504.82 934.562 507.365 923.484 509.768L917.761 461.002L915.652 443.029L913.466 424.431L912.482 443.029L911.527 461.002L908.784 512.833C902.852 514.025 896.827 515.169 890.706 516.276C890.394 516.342 890.072 516.399 889.76 516.446C889.448 516.513 889.136 516.569 888.814 516.617C884.018 517.487 879.156 518.319 874.237 519.133L873.423 461.002L873.168 443.029L872.25 377.813L880.244 351.401L882.656 351.184L888.814 350.626L889.76 350.54L890.706 350.446L951.968 344.884L954.011 344.694C954.011 344.694 955.468 347.542 957.473 352.281C957.644 352.678 957.823 353.095 958.003 353.52C959.734 357.683 961.796 363.084 963.679 369.186C966.167 377.208 968.352 386.44 969.08 395.626C969.572 401.86 969.402 408.065 968.201 413.883Z" fill="#2F2E41"/>
<path d="M970.593 389.228C970.023 396.827 965.64 402.693 960.804 402.33C955.967 401.966 952.51 395.512 953.081 387.91C953.268 384.87 954.179 381.919 955.74 379.304L958.561 347.136L973.629 348.781L969.248 380.319C970.401 383.138 970.862 386.193 970.593 389.228Z" fill="#FFB6B6"/>
<path d="M953.071 261.337C953.071 261.337 956.219 243.714 963.114 243.586C970.01 243.459 977.985 252.749 977.985 252.749L983.696 312.404L970.718 370.598L955.603 367.567L962.609 310.467L953.071 261.337Z" fill="#3F3D56"/>
<path d="M926.062 230.392C939.1 230.392 949.668 219.823 949.668 206.786C949.668 193.748 939.1 183.18 926.062 183.18C913.025 183.18 902.457 193.748 902.457 206.786C902.457 219.823 913.025 230.392 926.062 230.392Z" fill="#FFB6B6"/>
<path d="M917.014 180.424C917.014 180.424 913.079 191.441 919.374 193.801C925.669 196.162 934.325 199.309 933.538 203.244C932.751 207.178 935.898 218.981 935.898 218.981C935.898 218.981 917.014 230.784 929.603 242.587C942.193 254.39 951.636 249.526 949.669 261.007C947.701 272.488 967.373 267.767 967.373 267.767C967.373 267.767 974.455 256.75 968.947 245.734C963.439 234.718 972.881 254.39 975.242 254.39C977.602 254.39 989.405 257.537 984.684 244.161C979.963 230.784 972.881 229.997 972.881 219.768C972.881 209.538 968.16 196.949 966.586 195.375C965.013 193.801 957.931 173.343 943.767 174.916C929.604 176.49 917.014 180.424 917.014 180.424Z" fill="#2F2E41"/>
<path d="M811.316 331.888L792.264 337.515L805.392 381.97L824.444 376.343L811.316 331.888Z" fill="#2E43FF"/>
<path d="M499.142 294.048L480.09 299.675L493.219 344.13L512.271 338.503L499.142 294.048Z" fill="#2E43FF"/>
<path d="M856.452 428.841V521.935C851.457 522.672 846.415 523.391 841.316 524.082V428.841H856.452Z" fill="#3F3D56"/>
<path d="M1045 443.029H851.723V461.003H1045V443.029Z" fill="#2E43FF"/>
<path d="M558.01 130.431C570.591 130.431 580.789 120.233 580.789 107.652C580.789 95.0723 570.591 84.874 558.01 84.874C545.43 84.874 535.232 95.0723 535.232 107.652C535.232 120.233 545.43 130.431 558.01 130.431Z" fill="#E6E6E6"/>
<path d="M939.531 166.358C952.111 166.358 962.309 156.159 962.309 143.579C962.309 130.999 952.111 120.801 939.531 120.801C926.951 120.801 916.752 130.999 916.752 143.579C916.752 156.159 926.951 166.358 939.531 166.358Z" fill="#E6E6E6"/>
<path d="M564.241 113.454C563.021 113.391 561.8 113.363 560.58 113.353C561.39 108.797 562.2 104.241 563.01 99.6843C563.196 98.6377 562.886 97.577 561.923 97.0136C561.004 96.4761 559.817 96.6566 559.057 97.3834C556.808 99.5339 554.56 101.684 552.311 103.835C551.388 104.718 551.422 106.29 552.311 107.179C553.233 108.102 554.73 108.065 555.655 107.179C556.152 106.704 556.649 106.229 557.146 105.754L555.777 113.458C554.443 113.524 553.11 113.611 551.78 113.742C550.509 113.867 549.415 114.739 549.415 116.107C549.415 117.412 550.498 118.443 551.78 118.472C553.745 118.515 555.71 118.559 557.675 118.603C558.164 118.614 558.703 118.416 559.137 118.09C560.838 118.074 562.54 118.096 564.241 118.184C565.518 118.251 566.606 117.05 566.606 115.819C566.606 114.484 565.522 113.521 564.241 113.454Z" fill="white"/>
<path d="M741.73 103.558C754.31 103.558 764.509 93.3596 764.509 80.7794C764.509 68.1992 754.31 58.001 741.73 58.001C729.15 58.001 718.952 68.1992 718.952 80.7794C718.952 93.3596 729.15 103.558 741.73 103.558Z" fill="#2E43FF"/>
<path d="M747.961 86.5833C746.74 86.52 745.52 86.492 744.3 86.4824C745.11 81.926 745.919 77.3696 746.729 72.8132C746.915 71.7666 746.606 70.7059 745.642 70.1425C744.724 69.605 743.536 69.7855 742.777 70.5123C740.528 72.6628 738.279 74.8133 736.031 76.9638C735.107 77.8468 735.142 79.4194 736.031 80.3083C736.953 81.2307 738.449 81.1938 739.375 80.3083C739.872 79.8331 740.369 79.3578 740.866 78.8825L739.497 86.5867C738.163 86.6532 736.83 86.74 735.5 86.8707C734.229 86.9956 733.135 87.8682 733.135 89.2356C733.135 90.5411 734.218 91.5721 735.5 91.6006C737.465 91.6443 739.43 91.688 741.395 91.7318C741.884 91.7427 742.422 91.5453 742.857 91.2185C744.558 91.2024 746.26 91.225 747.961 91.3132C749.238 91.3794 750.326 90.1788 750.326 88.9483C750.326 87.6125 749.241 86.6497 747.961 86.5833Z" fill="white"/>
<path d="M406.881 166.316C419.461 166.316 429.659 156.117 429.659 143.537C429.659 130.957 419.461 120.759 406.881 120.759C394.301 120.759 384.103 130.957 384.103 143.537C384.103 156.117 394.301 166.316 406.881 166.316Z" fill="#E6E6E6"/>
<path d="M413.809 149.993C411.851 148.981 409.713 148.442 407.566 148.366C409.24 145.67 410.394 142.643 410.848 139.521C411.113 137.658 411.142 135.794 409.827 134.29C408.824 133.136 407.377 132.691 405.91 132.549C404.718 132.436 403.299 132.512 402.174 132.89C400.197 133.533 399.544 135.236 399.591 137.175C399.638 139.02 399.922 140.893 401.161 142.34C402.013 143.334 403.252 143.986 404.548 144.09C403.356 146.55 401.644 148.726 399.478 150.551C398.579 151.299 398.607 152.803 399.288 153.654C400.026 154.581 401.284 154.846 402.344 154.26C405.125 152.708 408.606 152.623 411.425 154.08C412.561 154.666 413.989 154.373 414.661 153.228C415.285 152.169 414.954 150.58 413.809 149.993ZM406.298 137.885C406.298 138.036 406.289 138.178 406.27 138.329C406.26 138.414 406.251 138.49 406.251 138.537C406.241 138.585 406.241 138.623 406.232 138.632V138.641C406.194 138.878 406.137 139.105 406.099 139.332C405.721 139.228 405.324 139.218 404.936 139.351C404.898 139.36 404.879 139.36 404.851 139.37H404.822C404.747 139.313 404.69 139.266 404.841 139.36C404.756 139.266 404.709 139.209 404.681 139.19L404.614 139.067C404.624 139.105 404.624 139.133 404.624 139.143C404.605 139.114 404.576 139.029 404.529 138.878C404.482 138.708 404.435 138.528 404.397 138.348C404.34 138.064 404.331 137.695 404.321 137.279C404.359 137.279 404.397 137.27 404.406 137.27C404.681 137.251 404.945 137.241 405.22 137.241C405.399 137.241 405.579 137.26 405.759 137.27C405.806 137.289 406.109 137.355 406.222 137.383C406.241 137.402 406.27 137.421 406.289 137.431C406.308 137.459 406.317 137.478 406.345 137.506L406.298 137.885Z" fill="white"/>
<path d="M942.706 143.279C944.296 142.058 945.554 140.261 945.421 138.18C945.175 134.339 941.41 132.589 938.081 131.946C936.822 131.7 935.526 132.296 935.167 133.592C934.855 134.756 935.564 136.26 936.822 136.506C937.362 136.61 937.901 136.733 938.44 136.893C938.714 136.969 938.989 137.064 939.254 137.177C939.329 137.215 939.604 137.338 939.651 137.366C939.868 137.48 940.095 137.612 940.304 137.764C940.323 137.792 940.436 137.896 940.512 137.972C940.341 137.839 940.663 138.341 940.663 138.218C940.682 138.265 940.691 138.303 940.701 138.341V138.426C940.701 138.435 940.644 138.625 940.663 138.625C940.512 138.871 940.455 138.984 940.36 139.079C939.954 139.533 939.67 139.703 939.074 139.987C937.693 140.658 936.17 141.018 934.789 141.718C932.386 142.948 934.06 146.779 936.614 146.041C936.737 146.013 936.851 145.975 936.974 145.946C937.04 145.937 937.153 145.918 937.229 145.918C937.39 145.918 937.541 145.918 937.693 145.928H937.749C938.062 145.994 938.374 146.069 938.667 146.192C938.705 146.211 938.762 146.24 938.809 146.278C938.941 146.353 939.083 146.438 939.216 146.514L939.367 146.618L939.377 146.628C939.499 146.722 939.604 146.836 939.717 146.94C939.736 146.959 939.84 147.082 939.897 147.138C939.944 147.205 940.039 147.328 940.048 147.347C940.133 147.488 940.218 147.64 940.294 147.791C940.304 147.819 940.313 147.867 940.323 147.914C940.341 148.009 940.37 148.113 940.398 148.217C940.389 148.255 940.408 148.415 940.408 148.52C940.408 148.548 940.408 148.567 940.417 148.586C940.389 148.709 940.351 148.832 940.323 148.955C940.313 148.983 940.313 148.993 940.313 149.002C940.228 149.163 940.133 149.314 940.048 149.465C940.039 149.484 940.02 149.494 940.01 149.513V149.522C939.906 149.626 939.821 149.721 939.717 149.825C939.651 149.891 939.566 149.957 939.49 150.024C939.433 150.052 939.282 150.166 939.244 150.184C939.112 150.251 938.989 150.326 938.856 150.393H938.847C938.837 150.402 938.828 150.402 938.818 150.402C938.639 150.459 938.468 150.506 938.298 150.553H938.27C938.109 150.553 937.73 150.506 937.73 150.525C937.674 150.516 937.598 150.497 937.551 150.487C937.447 150.43 937.248 150.326 937.248 150.326C934.628 148.756 932.244 152.852 934.855 154.413C939.093 156.948 944.863 153.543 945.128 148.737C945.251 146.552 944.248 144.632 942.706 143.279Z" fill="white"/>
</g>
</g>
<rect x="0.5" y="0.5" width="1271" height="492" rx="19.5" stroke="#73FF79"/>
<defs>
<clipPath id="clip0_403_7450">
<rect width="1272" height="493" rx="20" fill="white"/>
</clipPath>
<clipPath id="clip1_403_7450">
<rect width="817" height="479.088" fill="white" transform="translate(228 58)"/>
</clipPath>
</defs>
</svg>
